<?xml version="1.0" encoding="UTF-8" standalone="no"?>
<!-- Created with Inkscape (http://www.inkscape.org/) -->

<svg
   xmlns:dc="http://purl.org/dc/elements/1.1/"
   xmlns:cc="http://creativecommons.org/ns#"
   xmlns:rdf="http://www.w3.org/1999/02/22-rdf-syntax-ns#"
   xmlns:svg="http://www.w3.org/2000/svg"
   xmlns="http://www.w3.org/2000/svg"
   xmlns:sodipodi="http://sodipodi.sourceforge.net/DTD/sodipodi-0.dtd"
   xmlns:inkscape="http://www.inkscape.org/namespaces/inkscape"
   width="64"
   height="64"
   viewBox="0 0 64 64"
   id="svg4387"
   version="1.1"
   inkscape:version="0.91 r13725"
   sodipodi:docname="logo-no-head-no-gribou-silou.svg">
  <defs
     id="defs4389" />
  <sodipodi:namedview
     id="base"
     pagecolor="#ffffff"
     bordercolor="#666666"
     borderopacity="1.0"
     inkscape:pageopacity="0.0"
     inkscape:pageshadow="2"
     inkscape:zoom="7.9195959"
     inkscape:cx="35.226462"
     inkscape:cy="33.25893"
     inkscape:document-units="px"
     inkscape:current-layer="layer1"
     showgrid="false"
     fit-margin-top="0"
     fit-margin-left="0"
     fit-margin-right="0"
     fit-margin-bottom="0"
     inkscape:window-width="1366"
     inkscape:window-height="719"
     inkscape:window-x="0"
     inkscape:window-y="25"
     inkscape:window-maximized="1"
     units="px" />
  <metadata
     id="metadata4392">
    <rdf:RDF>
      <cc:Work
         rdf:about="">
        <dc:format>image/svg+xml</dc:format>
        <dc:type
           rdf:resource="http://purl.org/dc/dcmitype/StillImage" />
        <dc:title></dc:title>
      </cc:Work>
    </rdf:RDF>
  </metadata>
  <g
     inkscape:label="Calque 1"
     inkscape:groupmode="layer"
     id="layer1"
     transform="translate(-1.1478748,-911.07205)">
    <path
       style="color:#000000;clip-rule:nonzero;display:inline;overflow:visible;visibility:visible;opacity:1;isolation:auto;mix-blend-mode:normal;color-interpolation:sRGB;color-interpolation-filters:linearRGB;solid-color:#000000;solid-opacity:1;fill:#ffa500;fill-opacity:1;fill-rule:nonzero;stroke:none;stroke-width:1;stroke-linecap:butt;stroke-linejoin:round;stroke-miterlimit:4;stroke-dasharray:none;stroke-dashoffset:0;stroke-opacity:1;color-rendering:auto;image-rendering:auto;shape-rendering:auto;text-rendering:auto;enable-background:accumulate"
       d="M 38.203125 26.425781 A 18.099815 18.099815 0 0 1 34.09375 33.134766 L 34.09375 43.458984 L 62.130859 43.458984 L 62.130859 26.425781 L 38.203125 26.425781 z "
       transform="translate(1.1478748,911.07205)"
       id="rect4216" />
    <rect
       style="fill:#ff0000;fill-opacity:1;stroke:none;stroke-width:1;stroke-linejoin:round;stroke-miterlimit:4;stroke-dasharray:none;stroke-opacity:1"
       id="rect4216-6-7"
       width="28.036968"
       height="17.03512"
       x="35.242146"
       y="956.03693" />
    <path
       style="fill:#009000;fill-opacity:1;stroke:none;stroke-width:1;stroke-linejoin:round;stroke-miterlimit:4;stroke-dasharray:none;stroke-opacity:1"
       d="M 34.09375 7.8847656 L 34.09375 7.9628906 A 18.099815 18.099815 0 0 1 39.199219 20.5625 A 18.099815 18.099815 0 0 1 38.642578 24.919922 L 62.130859 24.919922 L 62.130859 7.8847656 L 34.09375 7.8847656 z "
       transform="translate(1.1478748,911.07205)"
       id="rect4216-6-7-3" />
    <path
       style="color:#000000;clip-rule:nonzero;display:inline;overflow:visible;visibility:visible;opacity:1;isolation:auto;mix-blend-mode:normal;color-interpolation:sRGB;color-interpolation-filters:linearRGB;solid-color:#000000;solid-opacity:1;fill:#ff0000;fill-opacity:1;fill-rule:nonzero;stroke:none;stroke-width:1;stroke-linecap:butt;stroke-linejoin:round;stroke-miterlimit:4;stroke-dasharray:none;stroke-dashoffset:0;stroke-opacity:1;color-rendering:auto;image-rendering:auto;shape-rendering:auto;text-rendering:auto;enable-background:accumulate"
       mask="none"
       d="M 4.375 27.443359 L 4.375 43.458984 L 32.412109 43.458984 L 32.412109 34.6875 A 18.099815 18.099815 0 0 1 21.099609 38.662109 A 18.099815 18.099815 0 0 1 4.375 27.443359 z "
       transform="translate(1.1478748,911.07205)"
       id="rect4216-5" />
    <rect
       style="fill:#009000;fill-opacity:1;stroke:none;stroke-width:1;stroke-linejoin:round;stroke-miterlimit:4;stroke-dasharray:none;stroke-opacity:1"
       id="rect4216-6-7-6"
       width="28.036968"
       height="17.03512"
       x="5.5231066"
       y="956.03693" />
    <path
       style="color:#000000;clip-rule:nonzero;display:inline;overflow:visible;visibility:visible;opacity:1;isolation:auto;mix-blend-mode:normal;color-interpolation:sRGB;color-interpolation-filters:linearRGB;solid-color:#000000;solid-opacity:1;fill:#00a300;fill-opacity:1;fill-rule:nonzero;stroke:none;stroke-width:1.78012264;stroke-linecap:butt;stroke-linejoin:round;stroke-miterlimit:4;stroke-dasharray:none;stroke-dashoffset:0;stroke-opacity:1;color-rendering:auto;image-rendering:auto;shape-rendering:auto;text-rendering:auto;enable-background:accumulate"
       d="M 21.099609 4.4511719 A 16.10994 16.10994 0 0 0 4.9902344 20.5625 A 16.10994 16.10994 0 0 0 21.099609 36.671875 A 16.10994 16.10994 0 0 0 37.208984 20.5625 A 16.10994 16.10994 0 0 0 21.099609 4.4511719 z M 20.232422 4.6777344 L 22.126953 4.6777344 L 22.126953 9.7285156 L 20.232422 9.7285156 L 20.232422 4.6777344 z M 30.208984 11.125 L 32.988281 11.535156 L 32.892578 14.091797 L 20.992188 23.972656 L 12.232422 18.59375 L 11.632812 15.773438 L 14.378906 15.291016 L 20.582031 19.080078 L 30.208984 11.125 z M 31.890625 19.966797 L 36.941406 19.966797 L 36.941406 21.859375 L 31.890625 21.859375 L 31.890625 19.966797 z M 5.2402344 20.083984 L 10.291016 20.083984 L 10.291016 21.978516 L 5.2402344 21.978516 L 5.2402344 20.083984 z M 20.232422 31.505859 L 22.126953 31.505859 L 22.126953 36.556641 L 20.232422 36.556641 L 20.232422 31.505859 z "
       transform="translate(1.1478748,911.07205)"
       id="path4295-0" />
  </g>
</svg>
