<?xml version="1.0" standalone="no"?>
<!DOCTYPE svg PUBLIC "-//W3C//DTD SVG 20010904//EN"
 "http://www.w3.org/TR/2001/REC-SVG-20010904/DTD/svg10.dtd">
<svg version="1.0" xmlns="http://www.w3.org/2000/svg"
 width="700.000000pt" height="700.000000pt" viewBox="0 0 700.000000 700.000000"
 preserveAspectRatio="xMidYMid meet">
<metadata>
Created by potrace 1.11, written by Peter Selinger 2001-2013
</metadata>
<g transform="translate(0.000000,700.000000) scale(0.100000,-0.100000)"
fill="#000000" stroke="none">
<path d="M2308 6516 c-1 -2 -54 -6 -116 -9 -62 -3 -116 -8 -120 -10 -4 -3 -29
-8 -57 -11 -175 -23 -455 -129 -634 -239 -228 -141 -439 -354 -580 -586 -98
-163 -198 -428 -225 -596 -2 -16 -8 -50 -12 -75 -4 -25 -8 -58 -10 -75 -5 -49
-5 -308 1 -340 7 -44 14 -85 21 -130 9 -65 43 -195 70 -270 164 -454 471 -799
897 -1007 145 -71 364 -140 487 -153 30 -4 62 -9 70 -12 23 -8 286 -16 279 -9
-4 4 -43 8 -87 8 l-80 2 0 273 c0 272 0 273 22 274 28 1 135 2 164 0 l23 -1
-3 -279 -3 -278 33 3 c229 22 410 72 617 169 301 141 548 360 732 649 99 156
209 433 239 604 2 12 6 34 9 50 26 146 26 434 0 562 -2 13 -7 41 -10 62 -3 21
-12 56 -20 78 -8 22 -12 40 -10 40 2 0 -12 46 -31 102 -179 519 -561 909
-1073 1094 -98 36 -232 71 -304 80 -23 3 -48 7 -56 10 -7 2 -57 7 -110 10 -53
3 -101 7 -108 9 -6 2 -13 2 -15 1z m110 -303 l-3 -278 -80 0 c-138 0 -123 -35
-123 281 l1 274 103 0 104 0 -2 -277z m1077 -458 c55 -8 103 -15 107 -15 3 0
5 -35 3 -77 -2 -43 -4 -106 -4 -139 l-1 -62 -87 -73 c-49 -40 -90 -76 -93 -79
-3 -3 -41 -34 -85 -70 -44 -36 -89 -73 -100 -82 -53 -45 -485 -403 -520 -431
-44 -36 -107 -89 -115 -97 -3 -3 -52 -44 -110 -92 -58 -47 -116 -96 -130 -108
-66 -59 -20 -79 -531 234 -255 157 -470 289 -477 293 -11 7 -46 142 -67 261
-3 19 -7 39 -8 45 -1 7 55 21 147 38 l148 27 341 -208 340 -207 26 22 c14 13
82 69 151 126 69 57 175 144 235 194 61 50 200 165 309 256 110 90 227 188
260 217 69 60 57 58 261 27z m545 -1042 l0 -103 -275 0 -275 0 0 103 0 103
275 0 275 0 0 -103z m-2934 88 c20 -1 21 -6 20 -103 l-1 -102 -275 0 -275 -1
-1 100 c-1 55 0 102 1 105 3 4 456 5 531 1z"/>
<path d="M3740 6121 c5 -9 35 -46 67 -83 135 -154 223 -298 328 -533 25 -56
64 -175 86 -258 81 -317 85 -604 14 -942 l-7 -31 1284 1 1283 0 0 930 0 930
-1532 1 c-1411 1 -1532 0 -1523 -15z"/>
<path d="M4170 4084 c-62 -161 -140 -317 -220 -434 -39 -58 -131 -174 -189
-240 l-31 -35 0 -565 0 -565 1507 2 c830 0 1519 2 1533 2 l25 1 0 930 0 930
-1308 0 -1307 0 -10 -26z"/>
<path d="M480 3960 c-4 -95 -1 -1701 3 -1707 4 -6 2880 -10 3037 -4 l25 1 0
475 c0 261 -2 475 -4 475 -2 0 -33 -22 -70 -48 -162 -117 -338 -208 -526 -271
-121 -40 -275 -79 -350 -87 -23 -2 -69 -8 -103 -12 -69 -10 -320 -8 -397 2
-112 15 -226 40 -335 73 -117 35 -304 112 -352 145 -14 10 -31 18 -37 18 -7 0
-24 8 -39 19 -15 10 -65 43 -112 74 -290 190 -531 460 -689 772 -36 71 -50 93
-51 75z"/>
<path d="M535 2082 l-60 -3 2 -925 c0 -509 3 -927 5 -930 4 -3 1480 -5 2838
-4 l225 0 0 930 0 930 -30 0 c-163 3 -2935 4 -2980 2z"/>
<path d="M3768 2082 l-38 -3 0 -930 0 -929 1533 0 1532 0 0 924 c0 508 -3 927
-7 931 -6 7 -2944 13 -3020 7z"/>
</g>
</svg>
